<?xml version="1.0" encoding="utf-8"?>
<svg viewBox="0 0 412 413" xmlns="http://www.w3.org/2000/svg" x="0px" y="0px">
    <g>
        <path id="no1" name="Title 1" fill="#6f4141" d="m36.5396 208.666 3.9979-6.519.0913-.149-.0213-.174-1.0649-8.683-.0038-.031-.0078-.031-3.1948-12.59-.0171-.068-.0349-.06-5.9581-10.288.6996-10.267.0028-.041-.004-.041-1.396-14.513 4.076-3.739.0207-.019.0185-.021 23.4294-26.918.0358-.041.0261-.048 2.8398-5.21.0407-.074.0137-.084 1.347-8.237 20.8192 1.273 7.4269 1.297.2691.047.1849-.201 2.8458-3.093 1.4062 1.376.0207.02.0228.017 10.6492 8.249.054.042.064.026 4.247 1.732 4.526 2.129 3.49 3.414.06.059.077.036 4.569 2.15 8.124 6.048.091.068.111.021 8.771 1.717 7.368 5.149.144.101.176-.012 6.187-.42 12.625 10.722.02.017.022.015 5.987 4.068-3.642 5.668-.154.24.128.255 2.84 5.644.154.306.34-.032 4.614-.435.031-.003.031-.006 3.593-.799 4.775 6.258.05.064.067.046 2.993 2.034.691 10.563-1.057 8.617-1.061 5.19-.04.197.107.17 3.549 5.644.042.065.059.05 4.566 3.867 6.9 9.704-2.979 6.883-1.875.382-.144.03-.106.103-1.704 1.668-4.169 1.699-.025.011-.024.012-6.034 3.257-5.87 3.167-9.402-2.13-.198-.045-.173.106-5.559 3.4h-8.248l-4.5-2.54-.114-.065h-.132-2.64l-3.05-2.901-.145-.138h-.199-3.461l-7.016-2.574-.286-.105-.225.206-2.629 2.412-8.246-2.522-.207-.063-.188.108-6.035 3.473-.03.018-.028.021-7.738 6.023-10.87 3.431-4.0057.408-8.0049-6.385-.0716-.057-.087-.028-6.7046-2.158-11.6682-6.054-5.316-3.034-.1512-.087-.1722.027-5.5603.85-11.5458-3.851z" />
        <path id="no2" name="Title 2" fill="#973243" d="m227.541 128.948-2.13-1.736 2.485-4.342 5.68-5.644 5.324-6.946 1.065-4.776v-6.5123l2.485-3.9075 6.744 1.3025 6.39 8.2493 2.84-3.039 6.744 2.17 1.775-2.17 2.485 1.302 9.584.868 10.65-2.605 3.549.435 5.68 2.17 1.42-5.6436-.71-10.4198 4.26 3.0391 10.294 1.7366 8.519-1.7366 6.035-4.7757 12.424-6.0781 2.13-5.2099-4.26-5.2098 5.325-6.9465-1.775-3.4733 4.97-5.2099-3.195-3.4732 2.485-4.3417 1.065-6.5122 7.099-3.4733-1.42-6.5123-6.389-6.0781-5.325-13.4588 30.172-8.68314.71 2.17088-3.55 5.64405-2.13.43414 1.065 5.64407-4.259 4.3415 3.195 3.9075 2.839.8682 3.55.8684 6.745 5.644 2.484 2.1709-.354 7.8147-6.39-.4342.71 4.3417 4.259 1.3025 7.1-.8683 2.485 3.9074-1.065 5.6441-3.905 2.1708-6.745.4342.71 10.4197-7.809 6.9465 2.485 4.3415 3.905 8.2489.71 4.3415 9.229 4.3417-7.455 6.9469-6.034 7.814 5.679 13.893-2.484 9.986-1.065 10.42.71 7.814 3.904 3.039-3.904 2.605-4.97 2.605-2.84 8.683 1.775 4.776 1.775.868-2.84 7.381-4.97-4.342-12.069 2.171-15.264-.868-7.809-3.039-6.035-4.776-3.905-1.302-6.034-5.21-8.52-.868-9.584 1.302-5.325-1.302 1.42-6.513-3.195-1.736-9.229-.435-4.26-4.775h-6.035l-15.264-1.737-6.389-2.605-2.84-4.775h3.55l.355-6.947 3.195-6.946-.355-3.039h-3.905l-2.13 5.644-2.84-.869-1.775-.868-7.454 1.737z" />
        <path id="no3" name="Title 3" fill="#d95b43" d="m297.204 87.2537.035.0212.037.0153 1.841.7505.684 10.0291-1.263 5.0212-5.154-1.97-.057-.022-.06-.007-3.55-.434-.091-.011-.089.021-10.568 2.585-9.402-.852-2.397-1.256-.361-.189-.258.315-1.559 1.907-6.42-2.066-.302-.097-.217.232-2.439 2.61-6.03-7.7851-.115-.149-.185-.0358-6.745-1.3024-.334-.0646-.182.2872-2.485 3.9075-.078.1228v.1455 6.4569l-1.029 4.614-5.237 6.833-5.656 5.62-.048.048-.033.058-2.485 4.342-.211.368.329.268 1.834 1.496-2.225 5.054-4.127.777-3.015-2.458-.007-.006-4.969-3.907-.086-.067-.105-.026-3.55-.868-.291-.072-.2.225-4.13 4.63-21.76 2.146-28.544-3.406.634-4.266.002-.012.71-5.644.001-.008.001-.009.71-7.814.018-.204-.129-.158-2.017-2.467v-6.334-.346l-.324-.122-4.376-1.646-.635-2.3337-1.416-8.6574-.037-.2263-.196-.1196-1.839-1.1249 1-5.7104 1.765-5.6128.046-.1459-.043-.1466-2.84-9.5513-.063-.2128-.201-.0958-7.908-3.7847-.326-3.593.354-9.9539.003-.099-.034-.0929-1.606-4.3215 2.746-1.1195.059-.0242.051-.0383 6.39-4.7757.222-.1656-.023-.2756-.355-4.3415-.011-.1351-.078-.1111-1.949-2.7813 7.466-13.2827 21.281 5.5468v.0002l.011.0026 21.958 5.1978 9.182 4.3194.101.0476h.112 7.217l4.465 5.4605.089.109.133.0465 4.875 1.7036 10.575 9.4846.046.0409.054.0287 10.628 5.6329 9.209 6.065.033.0217.036.0162 9.553 4.3271 10.232 6.4731 2.456 2.1455.141.1234h.188 6.588l8.037 5.5554.128.0887h.156 1.966l5.193 3.8106.016.0124.018.011z" />
        <path id="no4" name="Title 4" fill="#455688" d="m37.1296 59.4342-14.4368 4.3066-6.5137-1.258-5.234-3.8409-.1192-.0874-.1475-.0086-7.19384-.419-2.948342-4.8079 1.326592-5.2732 7.63057-5.9389 12.72982-6.0546.1882-.0895.0689-.1967 2.0636-5.889 8.1063-4.1311 2.9636 1.6109.3326.1808.2642-.271 10.9651-11.2478 23.924-15.491275 6.8244 1.252005 7.0283 3.86838.0985.05417.1121.00686 6.9675.42607 5.214 3.40101.0934.06096.1105.01544 12.3506 1.72628 10.227 4.7444.115.0536.127-.0082 13.411-.8633 14.908 3.7295-7.488 13.322-.154.2743.18.2577 2.052 2.9279.322 3.9307-6.117 4.5717-3.136 1.2783-.449.1829.169.4543 1.741 4.6828-.352 9.8865-.001.0315.003.0315.355 3.9074.026.2831.256.1227 7.964 3.8116 2.733 9.1921-1.729 5.4982-.01.0313-.005.0324-1.065 6.078-.059.3353.29.1776 1.935 1.1828 1.383 8.4569.004.0257.007.0251.71 2.6049.067.246.239.09 4.291 1.615v6.166.179l.112.138 2.001 2.447-.691 7.602-.707 5.624-.002.012-.649 4.366-5.812.395-7.31-5.109-.087-.06-.104-.021-8.763-1.715-8.073-6.01-.04-.03-.046-.021-4.538-2.135-3.489-3.414-.061-.059-.076-.036-4.615-2.171-.012-.006-.012-.005-4.196-1.71-10.5726-8.19-1.7541-1.7162-.3686-.3606-.3491.3795-3.0099 3.2723-7.1854-1.256-.0275-.004-.028-.002-20.8689-1.2759-.6711-7.387-.0154-.1687-.1146-.1246-3.1948-3.4733-.0144-.0156-.0156-.0144-4.2597-3.9074-.1622-.1488-.2193.0192-4.963.4335-6.8882.4213-4.6492-4.0618-.3442-14.7308 5.1351-4.1871.5469-.4459-.602-.3681-3.5499-2.1709-.1901-.1162z" />
        <path id="no5" name="Title 5" fill="#16736d" d="m411.072 291.757-29.109-7.38-1.065-6.079.71-7.38 3.55-4.342.71-4.341-1.065-1.303-1.065-3.907h-3.195l-6.389-6.078 2.129-3.039 1.775-7.381 1.976-8.435-6.527 6.139-4.267-.307-12.55-3.377-14.307-7.368-10.292-.614-10.793-1.842-8.534-8.288-9.789-3.377-.753 10.131-4.267 4.604-11.045 7.061-14.809 3.07-16.315-2.456-7.531-4.912-13.052 2.456-6.777 5.219-5.522 2.763-5.271 9.21-4.016 3.07-4.267 6.14 4.769 1.228 9.036 2.149 8.534 8.289 6.275.614-.753 2.456 5.773 11.358 5.774 5.833 1.255 2.763 6.024 4.605-1.506 4.298 1.757 4.605-1.506 3.991 4.016 3.377 9.538 2.456-.251 4.605-4.518 8.903-3.012 3.683-.251 5.219-4.518 3.07-1.004 9.21 4.769 6.754-.753 5.526 5.522 3.684-.753 4.912 2.008 3.07-.754 7.726 4.26-2.171 3.904-4.775-.709-3.908 7.099-3.473 15.619 1.302-2.84 3.474 8.875 6.946-1.775 4.342 5.324 3.473-6.389 7.381 8.874 4.775 7.81-2.171 6.034-1.736 3.195 4.776 5.325-9.986 8.519-3.473 8.875-1.303 5.324 3.474 5.325-.869.355-2.171 4.97-.868 1.774.434.71-4.341 4.615-3.474 3.195 1.303-2.485-4.342-8.874-2.171-6.745-3.473-2.485-3.039 6.035-3.907 2.485-1.303 1.065-7.814 6.744-1.737 4.26-1.303 3.195-2.604 1.775.434 1.419-4.776-2.129-8.683-6.39-10.42-4.26-9.117 1.065-13.025h10.65l7.099-1.302 2.13-4.776 5.679-2.605 11.005-.434z" />
        <path id="no6" name="Title 6" fill="#333333" d="m269.431 151.587h5.811l4.111 4.608.139.157.21.01 9.115.428 2.764 1.503-1.339 6.146-.104.476.473.116 5.325 1.302.092.023.094-.013 9.525-1.294 8.304.846 5.915 5.107.075.064.094.032 3.821 1.274 5.966 4.722.059.046.07.028 7.81 3.039.074.028.079.005 15.264.868.058.003.058-.01 11.833-2.128 4.789 4.183.12.105.158.016 8.192.835 1.643 5.223-.681 4.995-2.075 3.384-.211.345.293.278 3.195 3.039.166.159.229-.023 7.969-.813v4.95l-2.056 3.353-.221.36.318.278 4.472 3.907-4.771 3.112-.098.064-.059.1-5.225 8.807-.034.059-.018.066-1.638 6.065-6.263 5.892-4.001-.287-12.452-3.351-14.26-7.344-.094-.048-.105-.006-10.264-.613-10.614-1.811-8.422-8.18-.08-.078-.106-.036-9.789-3.377-.614-.212-.048.647-.74 9.957-4.104 4.429-10.913 6.977-14.632 3.033-16.119-2.426-7.439-4.853-.168-.11-.198.038-13.052 2.456-.118.022-.095.073-6.739 5.189-5.479 2.742-.135.067-.075.132-5.221 9.122-3.936 3.009-.062.047-.045.064-3.97 5.714-6.899-5.197-.113-.085-.142-.013-6.736-.622-5.835-3.025-.15-.078-.167.029-4.77.845.333-1.997 1.777-5.332 3.576-4.023.159-.179-.039-.235-1.367-8.2-.016-.099-.054-.085-3.489-5.54 5.54-2.989 4.234-1.726.091-.037.07-.069 1.67-1.634 1.985-.404.256-.052.103-.24 3.195-7.38.112-.259-.163-.23-7.1-9.985-.036-.051-.048-.041-4.556-3.857-3.402-5.409 1.025-5.014.004-.019.003-.02 1.064-8.683.006-.047-.003-.047-.71-10.854-.016-.243-.202-.137-3.127-2.126-4.921-6.447-.194-.255-.312.07-3.874.861-4.244.4-2.558-5.085 3.751-5.837.263-.41-.403-.274-6.367-4.327-11.494-9.762 27.461 3.277.054.006.054-.005 22.009-2.171.194-.019.13-.146 4.059-4.551 3.153.771 4.881 3.838.004.002 3.188 2.6.18.147.228-.043 4.615-.869.259-.048.106-.242 2.309-5.244 5.615 1.616.125.036.126-.03 7.281-1.696 1.615.79.036.018.038.011 2.84.869.448.137.166-.439 2.007-5.321h3.115l.287 2.458-3.137 6.819-.04.087-.005.096-.33 6.472h-3.075-.879l.449.756 2.84 4.776.086.144.155.063 6.39 2.605.063.026.069.008 15.264 1.736.028.004z" />
        <path id="no7" name="Title 7" fill="#cca55b" d="m265.572 376.068-.754 7.726-6.745-2.604-1.42 3.039-3.905 3.039-7.81 2.605-1.065-3.039-3.904.434-3.55-.868-4.97 4.776-12.069-.434-6.745-1.737-6.034-1.737-1.775-3.039-3.195-.434-3.905 3.473-7.099 3.039-12.779 1.303-10.295 4.775-12.779 3.908-11.359-.434-13.134 7.38-8.875 5.21-8.874-3.907-6.744-1.737-9.5848-6.946 5.6798-9.118 2.485-6.512-3.55-6.078-3.9049-2.605-7.4545-2.605.355-4.775-2.4849-3.908-4.2596-8.249-1.7749-13.893-3.1948-5.644-4.6146-4.341-2.1298-3.908-3.1949-4.775-19.8785-17.801-13.1341-9.985 1.4199-10.42.7099-19.103-1.0649-9.117-3.1948-4.776.7099-19.103v-13.893l1.7749-5.21.355-5.209 7.8094 4.775 11.7143 3.908 5.6797-.869 5.3246 3.039 11.7141 6.079 6.7447 2.17 8.1644 6.513 4.2597-.434 11.0047-3.474 7.809-6.078 6.035-3.473 8.519 2.605 2.84-2.605 7.099 2.605h3.55l3.195 3.039h2.84l4.615 2.605h8.519l5.68-3.474 9.584 2.171 6.034-3.256 3.775 5.992 1.366 8.2-3.644 4.099-1.822 5.467-.456 2.733 5.467-.968 5.922 3.07 6.833.631 7.314 5.509 4.769 1.228 9.036 2.149 8.534 8.289 6.275.614-.753 2.456 5.774 11.359 5.773 5.833 1.255 2.762 6.024 4.605-1.506 4.298 1.757 4.605-1.506 3.991 4.016 3.377 9.538 2.456-.251 4.605-4.518 8.903-3.012 3.684-.251 5.219-4.518 3.07-1.004 9.209 4.769 6.754-.753 5.526 5.522 3.684-.753 4.912z" />
    </g>
</svg>